<svg xmlns="http://www.w3.org/2000/svg" viewBox="18 20 134 100"><path fill="#CBA25A" d="M67.5,94.3c1,0,2.1.4,3,.9,1.8.9,3.4,2.2,4.9,3.6,1.7,1.6,3.3,3.3,5,4.9,1.3,1.2,2.7,2.2,4.3,2.9,1.9.9,4.1,1,6,.3.9-.3,1.8-.7,2.7-1.1,1.6-.7,3.1-1.5,4.7-2.2,4.4-1.8,8.7-1.5,12.9.8,2.4,1.3,4.5,2.9,6.7,4.6.9.7,1.7,1.4,2.6,2,.7.5,1.5,1,2.4,1.3,1.3.6,2.6.5,3.9.2,1.1-.3,2.1-.6,3.1-.9,3.9-1.4,8.2-1.5,12.2-.4,1.6.4,3.2,1,4.8,1.6.2,0,.3.2.5.3-.3.2-.6,0-.8,0-1.5-.4-3-.8-4.5-1.1-2.4-.5-4.8-.3-7.2.2-2.5.5-4.9,1.1-7.4,1.7-2.3.6-4.5.2-6.6-.9-1.4-.7-2.7-1.6-3.9-2.5l-1.9-1.4c-.3-.2-.6-.5-.9-.7-2.2-1.7-4.8-2.7-7.5-3.1-2.1-.2-4.2,0-6.3.4-2,.5-4,1.2-5.9,2-1.6.8-3.3,1.2-5,1.2-2,0-3.9-.5-5.7-1.5-2.1-1.1-3.9-2.5-5.7-3.9-1.8-1.4-3.6-2.9-5.5-4.4-1-.8-2.1-1.4-3.3-1.9-3-1-5.8,0-7.5,2.8-1.2,2-1.8,4.4-1.6,6.8,0,.2,0,.3,0,.6-.4-.5-.6-1.2-.6-1.8-.5-3.8.5-7,3.2-9.6,1.3-1.2,2.9-1.8,4.7-1.7ZM53.7,99.2c.6.4,1.1.9,1.7,1.3.4.2.7.4,1.1.6.7.3,1.6.2,2.2-.2.2-.2.5-.3.8-.5-.7,1.3-2.3,2-3.8,1.5-.4-.2-.9-.4-1.3-.7-.8-.5-1.5-1-2.3-1.5-1.4-.9-2.9-1.3-4.6-1.4-3.1,0-5.8,1.6-6.7,4.1-.7,1.8-.4,3.5.9,5.1.6.8,1.5,1.4,2.5,1.7,1.8.6,3.5,1.4,5.3,1.8,3.7.9,7.6.6,11.2-.8,2.6-1,4.7-2.6,6.2-4.9,0-.1.2-.2.4-.3,0,.1,0,.2,0,.4-1.9,4.2-5.1,6.9-9.9,7.7-2.8.5-5.5.2-8.2-.4-2.5-.5-4.9-1.4-7.3-2.2-2.1-.7-4.2-1.4-6.4-1.6-2.2-.3-4.4-.3-6.6.4-.8.2-1.5.6-2.1,1.1-.1,0-.2.2-.4.2h-.2c0-.3.2-.5.3-.7,1.2-2,3.1-3.2,5.4-3.5,2.2-.3,4.4,0,6.6.6.2,0,.4.1.7.2-.6-.9-1-1.8-1.2-2.8-.2-1.4.1-2.9,1-4.1,1.2-1.8,3.2-3,5.4-3.3,3.3-.7,6.7.2,9.3,2.3ZM98.8,24.1c20.1,1.1,37.6,13.9,44.5,32.7,6.8,18.3,1.9,37.7-9.1,50.1,9.6-13.7,12.5-28.5,7.7-44.5-3.6-12-10.9-21.4-21.6-28-21.2-13.2-50.1-8.9-66.5,12.4,7.7-12.4,24-23.9,44.9-22.7ZM88.7,58.4c.3.7.6,1.3.9,2q1.1,2.8,2.6,5.1c-.1,0-.3,0-.4-.1-1-.7-1.8-1.6-2.3-2.8-.4-.8-.7-1.7-1.1-2.6-.8-2-2.5-3.5-4.6-4.1-.8-.2-1.6-.3-2.4-.2-1.9.3-3.7,1.4-3.9,4-.3,2.8.4,5.4,2.2,7.6.9,1.2,2.2,2,3.7,2.3.5-.4.9-.7,1.4-1,2.6-1.7,5.3-1.9,8.2-.8,1.9.8,3.7,1.8,5.2,3.2,2.6,2.3,4.8,4.9,6.9,7.7,2,2.8,3.8,5.7,5.5,8.6,1.8,3.2,4,6.3,6.4,9.1,2.7,3.1,5.8,5.8,9.6,7.7,1.1.6,2.3,1,3.5,1.4.2,0,.4.2.6.2,0,.5-.4.4-.6.3-1.1-.3-2.2-.5-3.2-.9-3.2-1.1-6.1-2.8-8.6-5-2.7-2.4-5.1-5.1-7.1-8.1-2.2-3.2-4.3-6.5-6.5-9.7-1.4-2.2-2.9-4.2-4.7-6.1-1.4-1.5-3-2.9-4.7-4.1-1.5-1-3.1-1.7-4.9-1.8-2.1-.1-4,.6-5.7,1.9-1.7,1.3-3.2,2.9-4.3,4.7-.6.9-1.2,1.9-1.8,2.8l-.3.6h-.5c0-.1-.1-.2,0-.3,0-.2,0-.4,0-.5.8-2.5,2-4.9,3.3-7.2.3-.5.7-1,1-1.4-.7-.1-1.4-.3-2-.6-1-.4-1.8-1.1-2.4-1.9-1.2-1.6-2-3.5-2.3-5.4-.3-1.6-.2-3.2,0-4.7.6-2.6,2.7-3.9,4.7-4.2,3.5-.6,6.9,1.2,8.5,4.3ZM91.8,86.4c1.2,0,2.5.2,3.6.6,2.3.7,4.4,2,6,3.7,2.4,2.4,4.5,5,6.3,7.7.2.4.4.8.7,1.2-.4.3-.6,0-.8-.1-.7-.8-1.5-1.5-2.2-2.3-1.9-1.9-3.8-3.9-5.9-5.6-2-1.5-4.1-2.8-6.5-3.4-1.1-.3-2.3-.4-3.4-.4h-.8c-.2-.4,0-.5.2-.7.8-.6,1.8-.9,2.8-.8ZM89,73c0,0,.2,0,.3,0,0,0,.1,0,.2.1,0,.1,0,.2,0,.3-.4,1.3-.8,2.7-1.4,4-1.2,3.2-2.8,6.2-4.6,9.1-2.1,3.2-5,5.5-8.7,6.7-1.3.4-2.6.4-3.9,0-.4-.2-.4-.2-.4-.7.2,0,.4-.1.6-.2,3-.6,5.5-2.1,7.7-4.2,2.1-2,3.7-4.3,5.2-6.7s2.9-5,4.4-7.5c.2-.3.4-.6.6-.9Z"/></svg>
