<svg xmlns="http://www.w3.org/2000/svg" id="Layer_1" viewBox="0 0 426 144"><defs><style>      .st0 {        fill: #d19d77;      }      .st1 {        fill: #fff;      }    </style></defs><g id="mobile_logo-copy"><g id="elisspa-copy-5"><path id="Combined-Shape-Copy" class="st0" d="M67.5,94.3c1,0,2.1.4,3,.9,1.8.9,3.4,2.2,4.9,3.6,1.7,1.6,3.3,3.3,5,4.9,1.3,1.2,2.7,2.2,4.3,2.9,1.9.9,4.1,1,6,.3.9-.3,1.8-.7,2.7-1.1,1.6-.7,3.1-1.5,4.7-2.2,4.4-1.8,8.7-1.5,12.9.8,2.4,1.3,4.5,2.9,6.7,4.6.9.7,1.7,1.4,2.6,2,.7.5,1.5,1,2.4,1.3,1.3.6,2.6.5,3.9.2,1.1-.3,2.1-.6,3.1-.9,3.9-1.4,8.2-1.5,12.2-.4,1.6.4,3.2,1,4.8,1.6.2,0,.3.2.5.3-.3.2-.6,0-.8,0-1.5-.4-3-.8-4.5-1.1-2.4-.5-4.8-.3-7.2.2-2.5.5-4.9,1.1-7.4,1.7-2.3.6-4.5.2-6.6-.9-1.4-.7-2.7-1.6-3.9-2.5l-1.9-1.4c-.3-.2-.6-.5-.9-.7-2.2-1.7-4.8-2.7-7.5-3.1-2.1-.2-4.2,0-6.3.4-2,.5-4,1.2-5.9,2-1.6.8-3.3,1.2-5,1.2-2,0-3.9-.5-5.7-1.5-2.1-1.1-3.9-2.5-5.7-3.9-1.8-1.4-3.6-2.9-5.5-4.4-1-.8-2.1-1.4-3.3-1.9-3-1-5.8,0-7.5,2.8-1.2,2-1.8,4.4-1.6,6.8,0,.2,0,.3,0,.6-.4-.5-.6-1.2-.6-1.8-.5-3.8.5-7,3.2-9.6,1.3-1.2,2.9-1.8,4.7-1.7ZM53.7,99.2c.6.4,1.1.9,1.7,1.3.4.2.7.4,1.1.6.7.3,1.6.2,2.2-.2.2-.2.5-.3.8-.5-.7,1.3-2.3,2-3.8,1.5-.4-.2-.9-.4-1.3-.7-.8-.5-1.5-1-2.3-1.5-1.4-.9-2.9-1.3-4.6-1.4-3.1,0-5.8,1.6-6.7,4.1-.7,1.8-.4,3.5.9,5.1.6.8,1.5,1.4,2.5,1.7,1.8.6,3.5,1.4,5.3,1.8,3.7.9,7.6.6,11.2-.8,2.6-1,4.7-2.6,6.2-4.9,0-.1.2-.2.4-.3,0,.1,0,.2,0,.4-1.9,4.2-5.1,6.9-9.9,7.7-2.8.5-5.5.2-8.2-.4-2.5-.5-4.9-1.4-7.3-2.2-2.1-.7-4.2-1.4-6.4-1.6-2.2-.3-4.4-.3-6.6.4-.8.2-1.5.6-2.1,1.1-.1,0-.2.2-.4.2h-.2c0-.3.2-.5.3-.7,1.2-2,3.1-3.2,5.4-3.5,2.2-.3,4.4,0,6.6.6.2,0,.4.1.7.2-.6-.9-1-1.8-1.2-2.8-.2-1.4.1-2.9,1-4.1,1.2-1.8,3.2-3,5.4-3.3,3.3-.7,6.7.2,9.3,2.3ZM98.8,24.1c20.1,1.1,37.6,13.9,44.5,32.7,6.8,18.3,1.9,37.7-9.1,50.1,9.6-13.7,12.5-28.5,7.7-44.5-3.6-12-10.9-21.4-21.6-28-21.2-13.2-50.1-8.9-66.5,12.4,7.7-12.4,24-23.9,44.9-22.7ZM88.7,58.4c.3.7.6,1.3.9,2q1.1,2.8,2.6,5.1c-.1,0-.3,0-.4-.1-1-.7-1.8-1.6-2.3-2.8-.4-.8-.7-1.7-1.1-2.6-.8-2-2.5-3.5-4.6-4.1-.8-.2-1.6-.3-2.4-.2-1.9.3-3.7,1.4-3.9,4-.3,2.8.4,5.4,2.2,7.6.9,1.2,2.2,2,3.7,2.3.5-.4.9-.7,1.4-1,2.6-1.7,5.3-1.9,8.2-.8,1.9.8,3.7,1.8,5.2,3.2,2.6,2.3,4.8,4.9,6.9,7.7,2,2.8,3.8,5.7,5.5,8.6,1.8,3.2,4,6.3,6.4,9.1,2.7,3.1,5.8,5.8,9.6,7.7,1.1.6,2.3,1,3.5,1.4.2,0,.4.2.6.2,0,.5-.4.4-.6.3-1.1-.3-2.2-.5-3.2-.9-3.2-1.1-6.1-2.8-8.6-5-2.7-2.4-5.1-5.1-7.1-8.1-2.2-3.2-4.3-6.5-6.5-9.7-1.4-2.2-2.9-4.2-4.7-6.1-1.4-1.5-3-2.9-4.7-4.1-1.5-1-3.1-1.7-4.9-1.8-2.1-.1-4,.6-5.7,1.9-1.7,1.3-3.2,2.9-4.3,4.7-.6.9-1.2,1.9-1.8,2.8l-.3.6h-.5c0-.1-.1-.2,0-.3,0-.2,0-.4,0-.5.8-2.5,2-4.9,3.3-7.2.3-.5.7-1,1-1.4-.7-.1-1.4-.3-2-.6-1-.4-1.8-1.1-2.4-1.9-1.2-1.6-2-3.5-2.3-5.4-.3-1.6-.2-3.2,0-4.7.6-2.6,2.7-3.9,4.7-4.2,3.5-.6,6.9,1.2,8.5,4.3ZM91.8,86.4c1.2,0,2.5.2,3.6.6,2.3.7,4.4,2,6,3.7,2.4,2.4,4.5,5,6.3,7.7.2.4.4.8.7,1.2-.4.3-.6,0-.8-.1-.7-.8-1.5-1.5-2.2-2.3-1.9-1.9-3.8-3.9-5.9-5.6-2-1.5-4.1-2.8-6.5-3.4-1.1-.3-2.3-.4-3.4-.4h-.8c-.2-.4,0-.5.2-.7.8-.6,1.8-.9,2.8-.8ZM89,73c0,0,.2,0,.3,0,0,0,.1,0,.2.1,0,.1,0,.2,0,.3-.4,1.3-.8,2.7-1.4,4-1.2,3.2-2.8,6.2-4.6,9.1-2.1,3.2-5,5.5-8.7,6.7-1.3.4-2.6.4-3.9,0-.4-.2-.4-.2-.4-.7.2,0,.4-.1.6-.2,3-.6,5.5-2.1,7.7-4.2,2.1-2,3.7-4.3,5.2-6.7s2.9-5,4.4-7.5c.2-.3.4-.6.6-.9Z"></path></g><g id="Elis-Spa"><path id="Combined-Shape" class="st1" d="M201.5,46.5v3.3h-26.8v18.2h17.9v3.3h-17.9v22.8h26.8v3.3h-35.3v-51h35.3ZM214.3,97.5h-7.8v-57.2l5.6-2.2h2.3v59.4ZM223.6,59.6l5.5-2.2h2.3v40.1h-7.7v-37.9ZM223,43c0-.6.1-1.2.3-1.7.2-.5.5-1,1-1.4.4-.4.9-.7,1.4-1,.5-.2,1.1-.3,1.7-.3s1.2.1,1.7.3c.5.2,1,.6,1.4,1,.4.4.7.9,1,1.4s.3,1.1.3,1.7-.1,1.2-.3,1.7c-.2.5-.5,1-1,1.4-.4.4-.9.7-1.4,1-.5.2-1.1.3-1.7.3s-1.2-.1-1.7-.3-1-.6-1.4-1c-.4-.4-.7-.9-1-1.4-.2-.5-.3-1.1-.3-1.7ZM252.5,95.6c1,0,2-.2,2.9-.5s1.7-.7,2.3-1.3,1.2-1.2,1.5-1.9c.4-.7.5-1.4.5-2.2,0-1.2-.3-2.3-.9-3.2-.6-.9-1.4-1.7-2.4-2.4s-2.1-1.4-3.4-1.9c-1.3-.6-2.5-1.2-3.8-1.8-1.3-.6-2.6-1.3-3.8-2-1.3-.7-2.4-1.5-3.4-2.5-1-.9-1.8-2-2.4-3.3-.6-1.2-.9-2.7-.9-4.4s.3-3,1-4.4c.7-1.3,1.6-2.5,2.8-3.5,1.2-1,2.6-1.7,4.2-2.3,1.6-.6,3.4-.8,5.4-.8s2.5,0,3.6.3,2.2.5,3.3,1c1.1.5,2.2,1.2,3.2,2.2s2.2,2.2,3.4,3.7l-2.9,2.6c-1.5-2.4-3.1-4.2-5-5.4-1.8-1.2-3.8-1.8-5.8-1.8s-2.1.1-3.1.4-1.7.6-2.4,1.1c-.7.5-1.2,1-1.5,1.7s-.6,1.3-.6,2c0,1.2.3,2.2,1,3.1.7.9,1.5,1.7,2.6,2.4,1.1.7,2.3,1.4,3.7,1.9,1.4.6,2.8,1.2,4.2,1.8,1.4.6,2.8,1.3,4.2,2,1.4.7,2.6,1.5,3.7,2.5s1.9,2,2.6,3.2c.7,1.2,1,2.7,1,4.3s-.3,3.2-.9,4.7c-.6,1.4-1.5,2.7-2.8,3.8s-2.8,1.9-4.7,2.5c-1.9.6-4.1.9-6.6.9s-2.3,0-3.5-.3c-1.2-.2-2.4-.5-3.7-1.1s-2.5-1.3-3.7-2.2-2.4-2.2-3.6-3.7l3.2-2.9c.9,1.3,1.9,2.5,2.7,3.4s1.8,1.7,2.7,2.3c.9.6,1.8,1,2.8,1.3,1,.3,2,.4,3.1.4ZM301.1,95.4c1.3,0,2.5-.2,3.7-.5,1.2-.3,2.3-.9,3.3-1.5,1-.7,1.7-1.5,2.3-2.5.6-1,.9-2.1.9-3.4s-.4-3-1.2-4.2-1.9-2.3-3.2-3.3c-1.3-1-2.8-2-4.5-2.9-1.7-.9-3.4-1.8-5.1-2.7-1.7-.9-3.4-1.8-5.1-2.8-1.7-1-3.2-2.1-4.5-3.3-1.3-1.2-2.4-2.6-3.2-4.1-.8-1.5-1.2-3.2-1.2-5.2s.4-3.8,1.1-5.4c.7-1.7,1.8-3.1,3.2-4.3,1.4-1.2,3.1-2.2,5.2-2.9s4.4-1,7.1-1,4.5.3,6.4.8c1.9.5,3.5,1.3,5,2.3,1.4,1,2.6,2.2,3.6,3.7s1.8,3.2,2.4,5.1l-4.4,2c-.5-1.6-1.2-3-2-4.3-.8-1.3-1.7-2.4-2.8-3.3-1.1-.9-2.4-1.6-3.8-2.1-1.4-.5-3.1-.7-4.9-.7s-3,.2-4.2.7c-1.2.4-2.2,1-3,1.8-.8.7-1.4,1.6-1.8,2.5-.4.9-.6,1.8-.6,2.8s.4,2.6,1.2,3.7c.8,1.1,1.9,2.2,3.3,3.2,1.4,1,2.9,1.9,4.6,2.9,1.7.9,3.5,1.9,5.3,2.8,1.8.9,3.5,1.9,5.3,3,1.7,1,3.3,2.1,4.6,3.4,1.4,1.2,2.4,2.5,3.3,4,.8,1.4,1.2,3.1,1.2,4.9s-.4,3.9-1.1,5.7-1.9,3.3-3.4,4.7c-1.5,1.3-3.4,2.4-5.7,3.1-2.3.8-4.9,1.2-7.9,1.2s-4.6-.3-6.5-.8-3.6-1.3-5.1-2.3c-1.5-1-2.7-2.3-3.8-3.7s-1.9-3.2-2.6-5.1l4.6-1.9c.5,1.7,1.3,3.2,2.2,4.5.9,1.3,2,2.4,3.2,3.3,1.2.9,2.5,1.6,4,2.1,1.5.5,3,.7,4.7.7ZM331.1,57.4h2.2v8.8c.8-1,1.7-2,2.6-3.1,1-1.1,2-2,3.2-2.9,1.2-.9,2.4-1.6,3.8-2.1s2.9-.8,4.6-.8,4.4.5,6.3,1.5c1.9,1,3.5,2.3,4.8,4,1.3,1.7,2.4,3.6,3.1,5.9.7,2.2,1.1,4.6,1.1,7.2s-.4,6.3-1.3,9c-.9,2.8-2.2,5.1-3.8,7.1-1.7,2-3.7,3.6-6.1,4.7-2.4,1.1-5,1.7-8,1.7s-2.1,0-3-.2-1.8-.3-2.6-.5c-.8-.2-1.6-.5-2.4-.9-.8-.4-1.6-.8-2.4-1.3v18.6h-7.8v-54.5l5.6-2.2ZM333.3,86.9c0,1.2.3,2.3.8,3.3.5,1,1.2,1.9,2.1,2.7.9.8,2,1.4,3.3,1.8s2.7.7,4.2.7,2.8-.4,4.1-1.1,2.4-1.8,3.4-3.2c1-1.4,1.7-3,2.3-4.9.5-1.9.8-4,.8-6.3s-.3-5.4-.8-7.6c-.5-2.2-1.2-4-2.1-5.4s-2-2.5-3.2-3.2c-1.2-.7-2.6-1.1-4.1-1.1s-2.2.2-3.2.5c-1,.3-2,.8-2.9,1.4-.9.6-1.8,1.3-2.5,2-.8.8-1.5,1.6-2.1,2.4v17.8ZM393.4,97.5c-1-.5-1.9-1.2-2.6-2.2s-1.1-2-1.1-3.2c-.9.7-1.8,1.4-2.7,2.2s-1.8,1.4-2.9,2c-1,.6-2.2,1.1-3.4,1.5-1.3.4-2.7.6-4.4.6s-2.9-.2-4.2-.7c-1.2-.5-2.3-1.2-3.1-2.1-.9-.9-1.5-1.9-2-3.1-.5-1.2-.7-2.5-.7-3.9s.3-3.2,1-4.6,1.6-2.6,2.7-3.6c1.2-1.1,2.5-2,4-2.8,1.5-.8,3.2-1.6,4.9-2.2,1.7-.7,3.5-1.2,5.4-1.7,1.8-.5,3.6-1,5.4-1.4v-2.5c0-1.8-.1-3.3-.4-4.5-.3-1.2-.7-2.2-1.2-3-.5-.8-1.2-1.3-2-1.6s-1.8-.5-3-.5-2.1.2-3,.7-1.7,1-2.4,1.7-1.3,1.6-1.7,2.6c-.4,1-.7,2-.9,3.1h-7.1c.2-1.7.8-3.2,1.7-4.5,1-1.3,2.2-2.5,3.6-3.4s3.1-1.6,5-2.1c1.9-.5,3.8-.7,5.8-.7s4.7.2,6.4.7c1.7.5,3.1,1.2,4.2,2.1s1.8,2,2.2,3.3c.4,1.3.7,2.7.7,4.3v24.3c0,1.2.4,2.3,1.1,3.2.7.9,1.6,1.7,2.6,2.2h-7.8ZM389.8,74.6c-1.1.4-2.3.8-3.5,1.2-1.2.5-2.4,1-3.5,1.6-1.1.6-2.2,1.2-3.3,1.9-1,.7-2,1.4-2.8,2.2-.8.8-1.4,1.6-1.9,2.4-.5.8-.7,1.7-.7,2.7s.2,1.9.5,2.7.8,1.6,1.4,2.3c.6.7,1.3,1.2,2,1.5.8.4,1.6.6,2.4.6s1.7-.1,2.5-.3c.8-.2,1.6-.5,2.3-.9.7-.4,1.5-.9,2.2-1.4s1.5-1.1,2.3-1.7v-14.7Z"></path></g></g></svg>